<svg id="Capa_1" enable-background="new 0 0 512 512" height="512" viewBox="0 0 512 512" width="512" xmlns="http://www.w3.org/2000/svg"><g><path d="m486.878 213.275h-461.756c-13.874 0-25.122 11.248-25.122 25.122v206.306c0 13.874 11.248 25.122 25.122 25.122h461.757c13.874 0 25.122-11.247 25.122-25.122v-206.306c-.001-13.874-11.248-25.122-25.123-25.122z" fill="#8eafe2"/><path d="m209.986 391.694h92.028v78.131h-92.028z" fill="#7c93dd"/><path d="m59.306 184.554c56.433-21.891 132.649-21.064 196.694 15.06v199.681c-72.97-41.158-161.737-36.496-219.046-4.62v-177.234c0-14.509 8.825-27.64 22.352-32.887z" fill="#fae0bd"/><path d="m452.694 184.554c-56.433-21.891-132.648-21.064-196.694 15.06v199.681c72.97-41.158 161.737-36.496 219.046-4.62v-177.234c0-14.509-8.825-27.64-22.352-32.887z" fill="#fbf1cf"/><path d="m256 399.295c-72.97-41.158-161.737-36.496-219.046-4.62v24.432c0 7.602 6.163 13.765 13.765 13.765h410.562c7.602 0 13.765-6.163 13.765-13.765v-24.432c-57.309-31.876-146.076-36.538-219.046 4.62z" fill="#e0b799"/><path d="m431.053 230.081h-22.821c0-83.952-68.29-152.242-152.232-152.242s-152.232 68.29-152.232 152.242h-22.821c-7.224 0-12.882-6.145-12.373-13.351 6.869-97.402 88.307-174.555 187.426-174.555s180.557 77.153 187.426 174.555c.509 7.205-5.15 13.351-12.373 13.351z" fill="#eda1ab"/><path d="m162.616 67.071c-52.794 30.366-89.527 85.637-94.043 149.659-.508 7.206 5.15 13.351 12.373 13.351h22.821c0-48.999 23.27-92.656 59.331-120.52-3.283-14.962-3.542-29.884-.482-42.49z" fill="#e58996"/><path d="m408.232 230.081h-35.663c0-64.286-52.293-116.579-116.569-116.579s-116.569 52.293-116.569 116.579h-35.664c0-83.952 68.291-152.242 152.232-152.242 83.943-.001 152.233 68.29 152.233 152.242z" fill="#f6ee86"/><path d="m372.569 230.081h-22.73c-6.855 0-12.793-4.965-13.78-11.749-5.689-39.123-39.367-69.167-80.059-69.167s-74.369 30.044-80.059 69.167c-.987 6.784-6.924 11.749-13.78 11.749h-22.73c0-64.286 52.293-116.579 116.569-116.579s116.569 52.293 116.569 116.579z" fill="#8ee2e1"/><g fill="#4e5660"><path d="m182.907 284.895h-86.952c-4.143 0-7.5-3.358-7.5-7.5s3.357-7.5 7.5-7.5h86.952c4.143 0 7.5 3.358 7.5 7.5s-3.357 7.5-7.5 7.5z"/><path d="m416.045 284.895h-86.952c-4.143 0-7.5-3.358-7.5-7.5s3.357-7.5 7.5-7.5h86.952c4.143 0 7.5 3.358 7.5 7.5s-3.357 7.5-7.5 7.5z"/><path d="m182.907 321.19h-86.952c-4.143 0-7.5-3.358-7.5-7.5s3.357-7.5 7.5-7.5h86.952c4.143 0 7.5 3.358 7.5 7.5s-3.357 7.5-7.5 7.5z"/></g><path d="m163.099 109.561c-36.061 27.865-59.331 71.521-59.331 120.52h35.664c0-33.723 14.396-64.141 37.357-85.445-6.415-10.901-11.038-22.991-13.69-35.075z" fill="#f2d98d"/><path d="m139.431 230.081h22.73c6.855 0 12.793-4.965 13.78-11.749 2.655-18.255 11.406-34.529 24.117-46.701-9.317-7.175-17.114-16.537-23.27-26.996-22.961 21.305-37.357 51.722-37.357 85.446z" fill="#6ad7be"/></g></svg>