<svg width="180" height="56" viewBox="0 0 180 56" fill="none" xmlns="http://www.w3.org/2000/svg">
<g clip-path="url(#clip0)">
<path d="M161.804 29.8261H127.761C126.789 29.8261 126 29.008 126 28C126 26.992 126.789 26.1739 127.761 26.1739H161.804C162.776 26.1739 163.565 26.992 163.565 28C163.565 29.008 162.776 29.8261 161.804 29.8261Z" fill="#493576"/>
<path d="M152.413 39.5651C151.962 39.5651 151.512 39.3876 151.168 39.0296C150.481 38.3163 150.481 37.1599 151.168 36.4461L159.316 27.9978L151.168 19.549C150.481 18.8357 150.481 17.6788 151.168 16.9655C151.857 16.2521 152.972 16.2521 153.66 16.9655L163.051 26.7049C163.739 27.4182 163.739 28.5747 163.051 29.288L153.66 39.027C153.315 39.3876 152.864 39.5651 152.413 39.5651Z" fill="#493576"/>
<path d="M154.174 54.7827C143.489 54.7827 134.055 48.1164 130.137 37.7974C129.78 36.8625 130.226 35.801 131.13 35.431C132.031 35.0658 133.058 35.521 133.414 36.4635C136.798 45.3723 144.947 51.1306 154.174 51.1306C166.472 51.1306 176.478 40.7532 176.478 28C176.478 15.2468 166.472 4.86942 154.174 4.86942C144.947 4.86942 136.798 10.6277 133.414 19.5365C133.055 20.479 132.031 20.9342 131.13 20.569C130.226 20.199 129.78 19.1375 130.137 18.2026C134.055 7.88362 143.489 1.21724 154.174 1.21724C168.414 1.21724 180 13.233 180 28C180 42.767 168.414 54.7827 154.174 54.7827Z" fill="#493576"/>
</g>
<path d="M14.5781 37.7617C14 38.5898 13.1914 39.2109 12.1523 39.625C11.1211 40.0312 9.91797 40.2344 8.54297 40.2344C7.15234 40.2344 5.91797 39.9102 4.83984 39.2617C3.76172 38.6055 2.92578 37.6758 2.33203 36.4727C1.74609 35.2695 1.44531 33.875 1.42969 32.2891V30.8008C1.42969 28.2305 2.02734 26.2383 3.22266 24.8242C4.42578 23.4102 6.11328 22.7031 8.28516 22.7031C10.0664 22.7031 11.5 23.1602 12.5859 24.0742C13.6719 24.9805 14.3359 26.2695 14.5781 27.9414H12.3281C11.9062 25.6836 10.5625 24.5547 8.29688 24.5547C6.78906 24.5547 5.64453 25.0859 4.86328 26.1484C4.08984 27.2031 3.69922 28.7344 3.69141 30.7422V32.1367C3.69141 34.0508 4.12891 35.5742 5.00391 36.707C5.87891 37.832 7.0625 38.3945 8.55469 38.3945C9.39844 38.3945 10.1367 38.3008 10.7695 38.1133C11.4023 37.9258 11.9258 37.6094 12.3398 37.1641V33.332H8.39062V31.5039H14.5781V37.7617ZM23.2617 40.2344C21.543 40.2344 20.1445 39.6719 19.0664 38.5469C17.9883 37.4141 17.4492 35.9023 17.4492 34.0117V33.6133C17.4492 32.3555 17.6875 31.2344 18.1641 30.25C18.6484 29.2578 19.3203 28.4844 20.1797 27.9297C21.0469 27.3672 21.9844 27.0859 22.9922 27.0859C24.6406 27.0859 25.9219 27.6289 26.8359 28.7148C27.75 29.8008 28.207 31.3555 28.207 33.3789V34.2812H19.6172C19.6484 35.5312 20.0117 36.543 20.707 37.3164C21.4102 38.082 22.3008 38.4648 23.3789 38.4648C24.1445 38.4648 24.793 38.3086 25.3242 37.9961C25.8555 37.6836 26.3203 37.2695 26.7188 36.7539L28.043 37.7852C26.9805 39.418 25.3867 40.2344 23.2617 40.2344ZM22.9922 28.8672C22.1172 28.8672 21.3828 29.1875 20.7891 29.8281C20.1953 30.4609 19.8281 31.3516 19.6875 32.5H26.0391V32.3359C25.9766 31.2344 25.6797 30.3828 25.1484 29.7812C24.6172 29.1719 23.8984 28.8672 22.9922 28.8672ZM33.668 24.25V27.3203H36.0352V28.9961H33.668V36.8594C33.668 37.3672 33.7734 37.75 33.9844 38.0078C34.1953 38.2578 34.5547 38.3828 35.0625 38.3828C35.3125 38.3828 35.6562 38.3359 36.0938 38.2422V40C35.5234 40.1562 34.9688 40.2344 34.4297 40.2344C33.4609 40.2344 32.7305 39.9414 32.2383 39.3555C31.7461 38.7695 31.5 37.9375 31.5 36.8594V28.9961H29.1914V27.3203H31.5V24.25H33.668ZM51.9141 36.6367C51.9141 36.0508 51.6914 35.5977 51.2461 35.2773C50.8086 34.9492 50.0391 34.668 48.9375 34.4336C47.8438 34.1992 46.9727 33.918 46.3242 33.5898C45.6836 33.2617 45.207 32.8711 44.8945 32.418C44.5898 31.9648 44.4375 31.4258 44.4375 30.8008C44.4375 29.7617 44.875 28.8828 45.75 28.1641C46.6328 27.4453 47.7578 27.0859 49.125 27.0859C50.5625 27.0859 51.7266 27.457 52.6172 28.1992C53.5156 28.9414 53.9648 29.8906 53.9648 31.0469H51.7852C51.7852 30.4531 51.5312 29.9414 51.0234 29.5117C50.5234 29.082 49.8906 28.8672 49.125 28.8672C48.3359 28.8672 47.7188 29.0391 47.2734 29.3828C46.8281 29.7266 46.6055 30.1758 46.6055 30.7305C46.6055 31.2539 46.8125 31.6484 47.2266 31.9141C47.6406 32.1797 48.3867 32.4336 49.4648 32.6758C50.5508 32.918 51.4297 33.207 52.1016 33.543C52.7734 33.8789 53.2695 34.2852 53.5898 34.7617C53.918 35.2305 54.082 35.8047 54.082 36.4844C54.082 37.6172 53.6289 38.5273 52.7227 39.2148C51.8164 39.8945 50.6406 40.2344 49.1953 40.2344C48.1797 40.2344 47.2812 40.0547 46.5 39.6953C45.7188 39.3359 45.1055 38.8359 44.6602 38.1953C44.2227 37.5469 44.0039 36.8477 44.0039 36.0977H46.1719C46.2109 36.8242 46.5 37.4023 47.0391 37.832C47.5859 38.2539 48.3047 38.4648 49.1953 38.4648C50.0156 38.4648 50.6719 38.3008 51.1641 37.9727C51.6641 37.6367 51.9141 37.1914 51.9141 36.6367ZM59.8477 24.25V27.3203H62.2148V28.9961H59.8477V36.8594C59.8477 37.3672 59.9531 37.75 60.1641 38.0078C60.375 38.2578 60.7344 38.3828 61.2422 38.3828C61.4922 38.3828 61.8359 38.3359 62.2734 38.2422V40C61.7031 40.1562 61.1484 40.2344 60.6094 40.2344C59.6406 40.2344 58.9102 39.9414 58.418 39.3555C57.9258 38.7695 57.6797 37.9375 57.6797 36.8594V28.9961H55.3711V27.3203H57.6797V24.25H59.8477ZM72.5859 40C72.4609 39.75 72.3594 39.3047 72.2812 38.6641C71.2734 39.7109 70.0703 40.2344 68.6719 40.2344C67.4219 40.2344 66.3945 39.8828 65.5898 39.1797C64.793 38.4688 64.3945 37.5703 64.3945 36.4844C64.3945 35.1641 64.8945 34.1406 65.8945 33.4141C66.9023 32.6797 68.3164 32.3125 70.1367 32.3125H72.2461V31.3164C72.2461 30.5586 72.0195 29.957 71.5664 29.5117C71.1133 29.0586 70.4453 28.832 69.5625 28.832C68.7891 28.832 68.1406 29.0273 67.6172 29.418C67.0938 29.8086 66.832 30.2812 66.832 30.8359H64.6523C64.6523 30.2031 64.875 29.5938 65.3203 29.0078C65.7734 28.4141 66.3828 27.9453 67.1484 27.6016C67.9219 27.2578 68.7695 27.0859 69.6914 27.0859C71.1523 27.0859 72.2969 27.4531 73.125 28.1875C73.9531 28.9141 74.3828 29.918 74.4141 31.1992V37.0352C74.4141 38.1992 74.5625 39.125 74.8594 39.8125V40H72.5859ZM68.9883 38.3477C69.668 38.3477 70.3125 38.1719 70.9219 37.8203C71.5312 37.4688 71.9727 37.0117 72.2461 36.4492V33.8477H70.5469C67.8906 33.8477 66.5625 34.625 66.5625 36.1797C66.5625 36.8594 66.7891 37.3906 67.2422 37.7734C67.6953 38.1562 68.2773 38.3477 68.9883 38.3477ZM83.9414 29.2656C83.6133 29.2109 83.2578 29.1836 82.875 29.1836C81.4531 29.1836 80.4883 29.7891 79.9805 31V40H77.8125V27.3203H79.9219L79.957 28.7852C80.668 27.6523 81.6758 27.0859 82.9805 27.0859C83.4023 27.0859 83.7227 27.1406 83.9414 27.25V29.2656ZM89.4727 24.25V27.3203H91.8398V28.9961H89.4727V36.8594C89.4727 37.3672 89.5781 37.75 89.7891 38.0078C90 38.2578 90.3594 38.3828 90.8672 38.3828C91.1172 38.3828 91.4609 38.3359 91.8984 38.2422V40C91.3281 40.1562 90.7734 40.2344 90.2344 40.2344C89.2656 40.2344 88.5352 39.9414 88.043 39.3555C87.5508 38.7695 87.3047 37.9375 87.3047 36.8594V28.9961H84.9961V27.3203H87.3047V24.25H89.4727ZM99.6445 40.2344C97.9258 40.2344 96.5273 39.6719 95.4492 38.5469C94.3711 37.4141 93.832 35.9023 93.832 34.0117V33.6133C93.832 32.3555 94.0703 31.2344 94.5469 30.25C95.0312 29.2578 95.7031 28.4844 96.5625 27.9297C97.4297 27.3672 98.3672 27.0859 99.375 27.0859C101.023 27.0859 102.305 27.6289 103.219 28.7148C104.133 29.8008 104.59 31.3555 104.59 33.3789V34.2812H96C96.0312 35.5312 96.3945 36.543 97.0898 37.3164C97.793 38.082 98.6836 38.4648 99.7617 38.4648C100.527 38.4648 101.176 38.3086 101.707 37.9961C102.238 37.6836 102.703 37.2695 103.102 36.7539L104.426 37.7852C103.363 39.418 101.77 40.2344 99.6445 40.2344ZM99.375 28.8672C98.5 28.8672 97.7656 29.1875 97.1719 29.8281C96.5781 30.4609 96.2109 31.3516 96.0703 32.5H102.422V32.3359C102.359 31.2344 102.062 30.3828 101.531 29.7812C101 29.1719 100.281 28.8672 99.375 28.8672ZM106.582 33.5547C106.582 31.6094 107.043 30.0469 107.965 28.8672C108.887 27.6797 110.094 27.0859 111.586 27.0859C113.07 27.0859 114.246 27.5938 115.113 28.6094V22H117.281V40H115.289L115.184 38.6406C114.316 39.7031 113.109 40.2344 111.562 40.2344C110.094 40.2344 108.895 39.6328 107.965 38.4297C107.043 37.2266 106.582 35.6562 106.582 33.7188V33.5547ZM108.75 33.8008C108.75 35.2383 109.047 36.3633 109.641 37.1758C110.234 37.9883 111.055 38.3945 112.102 38.3945C113.477 38.3945 114.48 37.7773 115.113 36.543V30.7188C114.465 29.5234 113.469 28.9258 112.125 28.9258C111.062 28.9258 110.234 29.3359 109.641 30.1562C109.047 30.9766 108.75 32.1914 108.75 33.8008Z" fill="#493576"/>
<defs>
<clipPath id="clip0">
<rect x="126" width="54" height="56" fill="white"/>
</clipPath>
</defs>
</svg>
