<svg width="230" height="269" viewBox="0 0 230 269" fill="none" xmlns="http://www.w3.org/2000/svg">
<path d="M178.472 41.3996C178.46 41.3996 178.448 41.3996 178.437 41.3996H166.478V36.7677C166.542 34.9344 165.494 33.2868 163.938 32.7747C155.635 30.312 147.085 29.0772 138.502 29.1011C124.391 29.1011 105.164 32.6949 90.9471 49.0663C76.8358 32.5351 57.4681 29.1011 43.3921 29.1011C34.809 29.0772 26.2593 30.312 17.9566 32.7747C16.3999 33.2868 15.3522 34.9344 15.4166 36.7677V41.3597H3.52782C1.57958 41.3597 0 43.1476 0 45.3527V172.89C0 175.095 1.57958 176.883 3.52782 176.883C4.13372 176.881 4.72904 176.702 5.25644 176.364C5.60923 176.164 40.8874 154.322 90.1357 168.378H90.6649H90.9824C91.2637 168.416 91.5477 168.416 91.829 168.378C141.218 154.203 176.497 176.004 176.708 176.364C177.8 177.077 179.145 177.077 180.236 176.364C181.321 175.655 181.992 174.348 182 172.93V45.3927C182 43.1875 180.421 41.3996 178.472 41.3996ZM7.05563 166.541V49.3857H15.4871V149.531C15.4651 151.736 17.0266 153.544 18.9748 153.569C19.1653 153.571 19.3558 153.556 19.5441 153.524C26.8423 152.262 34.2105 151.595 41.5929 151.527C51.8192 151.327 62.0027 153.067 71.7205 156.678C49.7753 153.674 27.5156 157.07 7.05563 166.541ZM41.5929 143.581C35.1763 143.598 28.7671 144.064 22.4016 144.979V39.9222C29.2703 38.1903 36.2845 37.3063 43.3216 37.2868C56.5156 37.2868 74.7191 40.7208 87.3487 56.8526L87.4545 156.319C80.1167 150.888 65.7938 143.581 41.5929 143.581ZM94.5102 56.8526C107.14 40.8806 125.343 37.2868 138.537 37.2868C145.574 37.3103 152.588 38.1938 159.457 39.9222V144.979C153.127 144.056 146.754 143.576 140.372 143.541C116.312 143.541 101.954 150.848 94.5102 156.279V56.8526ZM174.909 166.541C154.405 157.044 132.095 153.648 110.103 156.678C119.867 153.055 130.099 151.313 140.372 151.527C147.8 151.574 155.216 152.228 162.562 153.484C164.488 153.815 166.287 152.315 166.579 150.135C166.608 149.922 166.621 149.706 166.619 149.491V49.3857H175.05L174.909 166.541Z" fill="#3A314E"/>
<path d="M9.47461 198.1L6.3457 201.352V210H2.9707V184.406H6.3457V197.062L17.7188 184.406H21.7969L11.7246 195.709L22.5879 210H18.5449L9.47461 198.1ZM27.6855 190.98L27.791 193.371C29.2441 191.543 31.1426 190.629 33.4863 190.629C37.5059 190.629 39.5332 192.896 39.5684 197.432V210H36.3164V197.414C36.3047 196.043 35.9883 195.029 35.3672 194.373C34.7578 193.717 33.8027 193.389 32.502 193.389C31.4473 193.389 30.5215 193.67 29.7246 194.232C28.9277 194.795 28.3066 195.533 27.8613 196.447V210H24.6094V190.98H27.6855ZM43.6113 200.314C43.6113 198.451 43.9746 196.775 44.7012 195.287C45.4395 193.799 46.459 192.65 47.7598 191.842C49.0723 191.033 50.5664 190.629 52.2422 190.629C54.832 190.629 56.9238 191.525 58.5176 193.318C60.123 195.111 60.9258 197.496 60.9258 200.473V200.701C60.9258 202.553 60.5684 204.217 59.8535 205.693C59.1504 207.158 58.1367 208.301 56.8125 209.121C55.5 209.941 53.9883 210.352 52.2773 210.352C49.6992 210.352 47.6074 209.455 46.002 207.662C44.4082 205.869 43.6113 203.496 43.6113 200.543V200.314ZM46.8809 200.701C46.8809 202.811 47.3672 204.504 48.3398 205.781C49.3242 207.059 50.6367 207.697 52.2773 207.697C53.9297 207.697 55.2422 207.053 56.2148 205.764C57.1875 204.463 57.6738 202.646 57.6738 200.314C57.6738 198.229 57.1758 196.541 56.1797 195.252C55.1953 193.951 53.8828 193.301 52.2422 193.301C50.6367 193.301 49.3418 193.939 48.3574 195.217C47.373 196.494 46.8809 198.322 46.8809 200.701ZM81.8438 205.518L85.5 190.98H88.752L83.2148 210H80.5781L75.9551 195.586L71.4551 210H68.8184L63.2988 190.98H66.5332L70.2773 205.219L74.707 190.98H77.3262L81.8438 205.518ZM95.6074 210H92.3555V183H95.6074V210ZM108.721 210.352C106.143 210.352 104.045 209.508 102.428 207.82C100.811 206.121 100.002 203.854 100.002 201.018V200.42C100.002 198.533 100.359 196.852 101.074 195.375C101.801 193.887 102.809 192.727 104.098 191.895C105.398 191.051 106.805 190.629 108.316 190.629C110.789 190.629 112.711 191.443 114.082 193.072C115.453 194.701 116.139 197.033 116.139 200.068V201.422H103.254C103.301 203.297 103.846 204.814 104.889 205.975C105.943 207.123 107.279 207.697 108.896 207.697C110.045 207.697 111.018 207.463 111.814 206.994C112.611 206.525 113.309 205.904 113.906 205.131L115.893 206.678C114.299 209.127 111.908 210.352 108.721 210.352ZM108.316 193.301C107.004 193.301 105.902 193.781 105.012 194.742C104.121 195.691 103.57 197.027 103.359 198.75H112.887V198.504C112.793 196.852 112.348 195.574 111.551 194.672C110.754 193.758 109.676 193.301 108.316 193.301ZM119.127 200.332C119.127 197.414 119.818 195.07 121.201 193.301C122.584 191.52 124.395 190.629 126.633 190.629C128.859 190.629 130.623 191.391 131.924 192.914V183H135.176V210H132.188L132.029 207.961C130.729 209.555 128.918 210.352 126.598 210.352C124.395 210.352 122.596 209.449 121.201 207.645C119.818 205.84 119.127 203.484 119.127 200.578V200.332ZM122.379 200.701C122.379 202.857 122.824 204.545 123.715 205.764C124.605 206.982 125.836 207.592 127.406 207.592C129.469 207.592 130.975 206.666 131.924 204.814V196.078C130.951 194.285 129.457 193.389 127.441 193.389C125.848 193.389 124.605 194.004 123.715 195.234C122.824 196.465 122.379 198.287 122.379 200.701ZM139.465 200.332C139.465 197.367 140.15 195.012 141.521 193.266C142.893 191.508 144.709 190.629 146.971 190.629C149.291 190.629 151.102 191.449 152.402 193.09L152.561 190.98H155.531V209.543C155.531 212.004 154.799 213.943 153.334 215.361C151.881 216.779 149.924 217.488 147.463 217.488C146.092 217.488 144.75 217.195 143.438 216.609C142.125 216.023 141.123 215.221 140.432 214.201L142.119 212.25C143.514 213.973 145.219 214.834 147.234 214.834C148.816 214.834 150.047 214.389 150.926 213.498C151.816 212.607 152.262 211.354 152.262 209.736V208.102C150.961 209.602 149.186 210.352 146.936 210.352C144.709 210.352 142.904 209.455 141.521 207.662C140.15 205.869 139.465 203.426 139.465 200.332ZM142.734 200.701C142.734 202.846 143.174 204.533 144.053 205.764C144.932 206.982 146.162 207.592 147.744 207.592C149.795 207.592 151.301 206.66 152.262 204.797V196.113C151.266 194.297 149.771 193.389 147.779 193.389C146.197 193.389 144.961 194.004 144.07 195.234C143.18 196.465 142.734 198.287 142.734 200.701ZM168.346 210.352C165.768 210.352 163.67 209.508 162.053 207.82C160.436 206.121 159.627 203.854 159.627 201.018V200.42C159.627 198.533 159.984 196.852 160.699 195.375C161.426 193.887 162.434 192.727 163.723 191.895C165.023 191.051 166.43 190.629 167.941 190.629C170.414 190.629 172.336 191.443 173.707 193.072C175.078 194.701 175.764 197.033 175.764 200.068V201.422H162.879C162.926 203.297 163.471 204.814 164.514 205.975C165.568 207.123 166.904 207.697 168.521 207.697C169.67 207.697 170.643 207.463 171.439 206.994C172.236 206.525 172.934 205.904 173.531 205.131L175.518 206.678C173.924 209.127 171.533 210.352 168.346 210.352ZM167.941 193.301C166.629 193.301 165.527 193.781 164.637 194.742C163.746 195.691 163.195 197.027 162.984 198.75H172.512V198.504C172.418 196.852 171.973 195.574 171.176 194.672C170.379 193.758 169.301 193.301 167.941 193.301Z" fill="black"/>
</svg>
