<svg width="822" height="968" viewBox="0 0 822 968" fill="none" xmlns="http://www.w3.org/2000/svg">
<ellipse cx="196" cy="438.5" rx="116" ry="113.5" fill="#AD92E8"/>
<ellipse cx="655" cy="70" rx="73" ry="70" fill="#AD92E8"/>
<ellipse cx="655" cy="898" rx="73" ry="70" fill="#AD92E8"/>
<path d="M617.489 114.177C617.587 113.355 617 112.608 616.177 112.51L602.772 110.915C601.949 110.817 601.203 111.405 601.105 112.228C601.007 113.05 601.595 113.796 602.417 113.894L614.333 115.312L612.915 127.228C612.817 128.051 613.405 128.797 614.228 128.895C615.05 128.993 615.796 128.405 615.894 127.583L617.489 114.177ZM348.928 326.179L616.928 115.179L615.072 112.821L347.072 323.821L348.928 326.179Z" fill="#3A314E"/>
<path d="M615.809 860.488C616.631 860.593 617.382 860.013 617.488 859.191L619.207 845.801C619.312 844.979 618.732 844.228 617.91 844.122C617.088 844.017 616.337 844.597 616.231 845.419L614.703 857.321L602.801 855.793C601.979 855.688 601.228 856.268 601.122 857.09C601.017 857.912 601.597 858.663 602.419 858.769L615.809 860.488ZM356.813 525.917L614.813 859.917L617.187 858.083L359.187 524.083L356.813 525.917Z" fill="#3A314E"/>
<path d="M521.844 896.844L516.281 902.625V918H510.281V872.5H516.281V895L536.5 872.5H543.75L525.844 892.594L545.156 918H537.969L521.844 896.844ZM554.219 884.188L554.406 888.438C556.99 885.188 560.365 883.562 564.531 883.562C571.677 883.562 575.281 887.594 575.344 895.656V918H569.562V895.625C569.542 893.188 568.979 891.385 567.875 890.219C566.792 889.052 565.094 888.469 562.781 888.469C560.906 888.469 559.26 888.969 557.844 889.969C556.427 890.969 555.323 892.281 554.531 893.906V918H548.75V884.188H554.219ZM582.531 900.781C582.531 897.469 583.177 894.49 584.469 891.844C585.781 889.198 587.594 887.156 589.906 885.719C592.24 884.281 594.896 883.562 597.875 883.562C602.479 883.562 606.198 885.156 609.031 888.344C611.885 891.531 613.312 895.771 613.312 901.062V901.469C613.312 904.76 612.677 907.719 611.406 910.344C610.156 912.948 608.354 914.979 606 916.438C603.667 917.896 600.979 918.625 597.938 918.625C593.354 918.625 589.635 917.031 586.781 913.844C583.948 910.656 582.531 906.438 582.531 901.188V900.781ZM588.344 901.469C588.344 905.219 589.208 908.229 590.938 910.5C592.688 912.771 595.021 913.906 597.938 913.906C600.875 913.906 603.208 912.76 604.938 910.469C606.667 908.156 607.531 904.927 607.531 900.781C607.531 897.073 606.646 894.073 604.875 891.781C603.125 889.469 600.792 888.312 597.875 888.312C595.021 888.312 592.719 889.448 590.969 891.719C589.219 893.99 588.344 897.24 588.344 901.469ZM650.5 910.031L657 884.188H662.781L652.938 918H648.25L640.031 892.375L632.031 918H627.344L617.531 884.188H623.281L629.938 909.5L637.812 884.188H642.469L650.5 910.031ZM674.969 918H669.188V870H674.969V918ZM698.281 918.625C693.698 918.625 689.969 917.125 687.094 914.125C684.219 911.104 682.781 907.073 682.781 902.031V900.969C682.781 897.615 683.417 894.625 684.688 892C685.979 889.354 687.771 887.292 690.062 885.812C692.375 884.312 694.875 883.562 697.562 883.562C701.958 883.562 705.375 885.01 707.812 887.906C710.25 890.802 711.469 894.948 711.469 900.344V902.75H688.562C688.646 906.083 689.615 908.781 691.469 910.844C693.344 912.885 695.719 913.906 698.594 913.906C700.635 913.906 702.365 913.49 703.781 912.656C705.198 911.823 706.438 910.719 707.5 909.344L711.031 912.094C708.198 916.448 703.948 918.625 698.281 918.625ZM697.562 888.312C695.229 888.312 693.271 889.167 691.688 890.875C690.104 892.562 689.125 894.938 688.75 898H705.688V897.562C705.521 894.625 704.729 892.354 703.312 890.75C701.896 889.125 699.979 888.312 697.562 888.312ZM716.781 900.812C716.781 895.625 718.01 891.458 720.469 888.312C722.927 885.146 726.146 883.562 730.125 883.562C734.083 883.562 737.219 884.917 739.531 887.625V870H745.312V918H740L739.719 914.375C737.406 917.208 734.188 918.625 730.062 918.625C726.146 918.625 722.948 917.021 720.469 913.812C718.01 910.604 716.781 906.417 716.781 901.25V900.812ZM722.562 901.469C722.562 905.302 723.354 908.302 724.938 910.469C726.521 912.635 728.708 913.719 731.5 913.719C735.167 913.719 737.844 912.073 739.531 908.781V893.25C737.802 890.062 735.146 888.469 731.562 888.469C728.729 888.469 726.521 889.562 724.938 891.75C723.354 893.938 722.562 897.177 722.562 901.469ZM752.938 900.812C752.938 895.542 754.156 891.354 756.594 888.25C759.031 885.125 762.26 883.562 766.281 883.562C770.406 883.562 773.625 885.021 775.938 887.938L776.219 884.188H781.5V917.188C781.5 921.562 780.198 925.01 777.594 927.531C775.01 930.052 771.531 931.312 767.156 931.312C764.719 931.312 762.333 930.792 760 929.75C757.667 928.708 755.885 927.281 754.656 925.469L757.656 922C760.135 925.062 763.167 926.594 766.75 926.594C769.562 926.594 771.75 925.802 773.312 924.219C774.896 922.635 775.688 920.406 775.688 917.531V914.625C773.375 917.292 770.219 918.625 766.219 918.625C762.26 918.625 759.052 917.031 756.594 913.844C754.156 910.656 752.938 906.312 752.938 900.812ZM758.75 901.469C758.75 905.281 759.531 908.281 761.094 910.469C762.656 912.635 764.844 913.719 767.656 913.719C771.302 913.719 773.979 912.062 775.688 908.75V893.312C773.917 890.083 771.26 888.469 767.719 888.469C764.906 888.469 762.708 889.562 761.125 891.75C759.542 893.938 758.75 897.177 758.75 901.469ZM804.281 918.625C799.698 918.625 795.969 917.125 793.094 914.125C790.219 911.104 788.781 907.073 788.781 902.031V900.969C788.781 897.615 789.417 894.625 790.688 892C791.979 889.354 793.771 887.292 796.062 885.812C798.375 884.312 800.875 883.562 803.562 883.562C807.958 883.562 811.375 885.01 813.812 887.906C816.25 890.802 817.469 894.948 817.469 900.344V902.75H794.562C794.646 906.083 795.615 908.781 797.469 910.844C799.344 912.885 801.719 913.906 804.594 913.906C806.635 913.906 808.365 913.49 809.781 912.656C811.198 911.823 812.438 910.719 813.5 909.344L817.031 912.094C814.198 916.448 809.948 918.625 804.281 918.625ZM803.562 888.312C801.229 888.312 799.271 889.167 797.688 890.875C796.104 892.562 795.125 894.938 794.75 898H811.688V897.562C811.521 894.625 810.729 892.354 809.312 890.75C807.896 889.125 805.979 888.312 803.562 888.312Z" fill="#74629C"/>
<path d="M591.023 74.1836C585.234 72.5195 581.016 70.4805 578.367 68.0664C575.742 65.6289 574.43 62.6289 574.43 59.0664C574.43 55.0352 576.035 51.707 579.246 49.082C582.48 46.4336 586.676 45.1094 591.832 45.1094C595.348 45.1094 598.477 45.7891 601.219 47.1484C603.984 48.5078 606.117 50.3828 607.617 52.7734C609.141 55.1641 609.902 57.7773 609.902 60.6133H603.117C603.117 57.5195 602.133 55.0938 600.164 53.3359C598.195 51.5547 595.418 50.6641 591.832 50.6641C588.504 50.6641 585.902 51.4023 584.027 52.8789C582.176 54.332 581.25 56.3594 581.25 58.9609C581.25 61.0469 582.129 62.8164 583.887 64.2695C585.668 65.6992 588.68 67.0117 592.922 68.207C597.188 69.4023 600.516 70.7266 602.906 72.1797C605.32 73.6094 607.102 75.2852 608.25 77.207C609.422 79.1289 610.008 81.3906 610.008 83.9922C610.008 88.1406 608.391 91.4688 605.156 93.9766C601.922 96.4609 597.598 97.7031 592.184 97.7031C588.668 97.7031 585.387 97.0352 582.34 95.6992C579.293 94.3398 576.938 92.4883 575.273 90.1445C573.633 87.8008 572.812 85.1406 572.812 82.1641H579.598C579.598 85.2578 580.734 87.707 583.008 89.5117C585.305 91.293 588.363 92.1836 592.184 92.1836C595.746 92.1836 598.477 91.457 600.375 90.0039C602.273 88.5508 603.223 86.5703 603.223 84.0625C603.223 81.5547 602.344 79.6211 600.586 78.2617C598.828 76.8789 595.641 75.5195 591.023 74.1836ZM624.176 63.5664C627.059 60.0273 630.809 58.2578 635.426 58.2578C643.465 58.2578 647.52 62.793 647.59 71.8633V97H641.086V71.8281C641.062 69.0859 640.43 67.0586 639.188 65.7461C637.969 64.4336 636.059 63.7773 633.457 63.7773C631.348 63.7773 629.496 64.3398 627.902 65.4648C626.309 66.5898 625.066 68.0664 624.176 69.8945V97H617.672V43H624.176V63.5664ZM680.812 97C680.438 96.25 680.133 94.9141 679.898 92.9922C676.875 96.1328 673.266 97.7031 669.07 97.7031C665.32 97.7031 662.238 96.6484 659.824 94.5391C657.434 92.4062 656.238 89.7109 656.238 86.4531C656.238 82.4922 657.738 79.4219 660.738 77.2422C663.762 75.0391 668.004 73.9375 673.465 73.9375H679.793V70.9492C679.793 68.6758 679.113 66.8711 677.754 65.5352C676.395 64.1758 674.391 63.4961 671.742 63.4961C669.422 63.4961 667.477 64.082 665.906 65.2539C664.336 66.4258 663.551 67.8438 663.551 69.5078H657.012C657.012 67.6094 657.68 65.7812 659.016 64.0234C660.375 62.2422 662.203 60.8359 664.5 59.8047C666.82 58.7734 669.363 58.2578 672.129 58.2578C676.512 58.2578 679.945 59.3594 682.43 61.5625C684.914 63.7422 686.203 66.7539 686.297 70.5977V88.1055C686.297 91.5977 686.742 94.375 687.633 96.4375V97H680.812ZM670.02 92.043C672.059 92.043 673.992 91.5156 675.82 90.4609C677.648 89.4062 678.973 88.0352 679.793 86.3477V78.543H674.695C666.727 78.543 662.742 80.875 662.742 85.5391C662.742 87.5781 663.422 89.1719 664.781 90.3203C666.141 91.4688 667.887 92.043 670.02 92.043ZM714.879 64.7969C713.895 64.6328 712.828 64.5508 711.68 64.5508C707.414 64.5508 704.52 66.3672 702.996 70V97H696.492V58.9609H702.82L702.926 63.3555C705.059 59.957 708.082 58.2578 711.996 58.2578C713.262 58.2578 714.223 58.4219 714.879 58.75V64.7969ZM735.973 97.7031C730.816 97.7031 726.621 96.0156 723.387 92.6406C720.152 89.2422 718.535 84.707 718.535 79.0352V77.8398C718.535 74.0664 719.25 70.7031 720.68 67.75C722.133 64.7734 724.148 62.4531 726.727 60.7891C729.328 59.1016 732.141 58.2578 735.164 58.2578C740.109 58.2578 743.953 59.8867 746.695 63.1445C749.438 66.4023 750.809 71.0664 750.809 77.1367V79.8438H725.039C725.133 83.5938 726.223 86.6289 728.309 88.9492C730.418 91.2461 733.09 92.3945 736.324 92.3945C738.621 92.3945 740.566 91.9258 742.16 90.9883C743.754 90.0508 745.148 88.8086 746.344 87.2617L750.316 90.3555C747.129 95.2539 742.348 97.7031 735.973 97.7031ZM735.164 63.6016C732.539 63.6016 730.336 64.5625 728.555 66.4844C726.773 68.3828 725.672 71.0547 725.25 74.5H744.305V74.0078C744.117 70.7031 743.227 68.1484 741.633 66.3438C740.039 64.5156 737.883 63.6016 735.164 63.6016Z" fill="#74629C"/>
<path d="M385.382 326.448C385.357 326.448 385.331 326.448 385.306 326.448H359.482V317.994C359.621 314.648 357.358 311.641 353.997 310.706C336.069 306.211 317.607 303.957 299.073 304.001C268.602 304.001 227.085 310.56 196.386 340.442C165.915 310.269 124.093 304.001 93.6984 304.001C75.1644 303.957 56.7028 306.211 38.7744 310.706C35.413 311.641 33.1506 314.648 33.2896 317.994V326.376H7.61776C3.41085 326.376 0 329.639 0 333.664V566.45C0 570.475 3.41085 573.738 7.61776 573.738C8.9261 573.735 10.2116 573.408 11.3505 572.791C12.1122 572.426 88.2898 532.56 194.634 558.214H195.776H196.462C197.069 558.284 197.683 558.284 198.29 558.214C304.939 532.341 381.116 572.135 381.573 572.791C383.93 574.093 386.834 574.093 389.191 572.791C391.534 571.497 392.984 569.111 393 566.523V333.737C393 329.712 389.59 326.448 385.382 326.448ZM15.2355 554.862V341.025H33.4419V523.814C33.3943 527.839 36.7661 531.138 40.973 531.184C41.3844 531.189 41.7958 531.161 42.2024 531.102C57.9616 528.8 73.8722 527.582 89.8133 527.458C111.895 527.092 133.885 530.269 154.869 536.86C107.482 531.377 59.4156 537.574 15.2355 554.862ZM89.8133 512.954C75.9576 512.984 62.118 513.836 48.3727 515.505V323.752C63.2045 320.59 78.3505 318.977 93.546 318.942C122.036 318.942 161.344 325.209 188.616 354.654L188.844 536.204C172.999 526.292 142.071 512.954 89.8133 512.954ZM204.08 354.654C231.351 325.501 270.659 318.942 299.149 318.942C314.344 318.984 329.49 320.597 344.323 323.752V515.505C330.654 513.821 316.891 512.944 303.111 512.881C251.157 512.881 220.153 526.219 204.08 536.131V354.654ZM377.688 554.862C333.414 537.527 285.237 531.329 237.75 536.86C258.833 530.246 280.928 527.067 303.111 527.458C319.152 527.544 335.165 528.737 351.026 531.029C355.185 531.633 359.07 528.896 359.701 524.917C359.763 524.528 359.791 524.134 359.787 523.741V341.025H377.993L377.688 554.862Z" fill="#3A314E"/>
</svg>
