<svg xmlns="http://www.w3.org/2000/svg" viewBox="0 0 182 192" width="182" height="192">
	<style>
		tspan { white-space:pre }
		.shp0 { fill: #3a314e } 
		.shp1 { fill: #54339c } 
	</style>
	<path id="Layer" fill-rule="evenodd" class="shp0" d="M182 18.39L182 145.93C181.99 147.35 181.32 148.66 180.24 149.36C179.15 150.08 177.8 150.08 176.71 149.36C176.5 149 141.22 127.2 91.83 141.38C91.55 141.42 91.26 141.42 90.98 141.38L90.14 141.38C40.89 127.32 5.61 149.16 5.26 149.36C4.73 149.7 4.13 149.88 3.53 149.88C1.58 149.88 0 148.09 0 145.89L0 18.35C0 16.15 1.58 14.36 3.53 14.36L15.42 14.36L15.42 9.77C15.35 7.93 16.4 6.29 17.96 5.77C26.26 3.31 34.81 2.08 43.39 2.1C57.47 2.1 76.84 5.54 90.95 22.07C105.16 5.69 124.39 2.1 138.5 2.1C147.09 2.08 155.63 3.31 163.94 5.77C165.49 6.29 166.54 7.93 166.48 9.77L166.48 14.4C166.49 14.4 178.46 14.4 178.47 14.4C180.42 14.4 182 16.19 182 18.39ZM71.72 129.68C62 126.07 51.82 124.33 41.59 124.53C34.21 124.59 26.84 125.26 19.54 126.52C19.36 126.56 19.17 126.57 18.97 126.57C17.03 126.54 15.47 124.74 15.49 122.53L15.49 22.39L7.06 22.39L7.06 139.54C27.52 130.07 49.78 126.67 71.72 129.68ZM87.45 129.32L87.35 29.85C74.72 13.72 56.52 10.29 43.32 10.29C36.28 10.31 29.27 11.19 22.4 12.92L22.4 117.98C28.77 117.06 35.18 116.6 41.59 116.58C65.79 116.58 80.12 123.89 87.45 129.32ZM94.51 129.28C101.95 123.85 116.31 116.54 140.37 116.54C146.75 116.58 153.13 117.06 159.46 117.98L159.46 12.92C152.59 11.19 145.57 10.31 138.54 10.29C125.34 10.29 107.14 13.88 94.51 29.85L94.51 129.28ZM175.05 22.39L166.62 22.39L166.62 122.49C166.62 122.71 166.61 122.92 166.58 123.13C166.29 125.31 164.49 126.81 162.56 126.48C155.22 125.23 147.8 124.57 140.37 124.53C130.1 124.31 119.87 126.06 110.1 129.68C132.09 126.65 154.41 130.04 174.91 139.54L175.05 22.39Z" />
	<path id="Layer" fill-rule="evenodd" class="shp1" d="M9.47 171.1L6.35 174.35L6.35 183L2.97 183L2.97 157.41L6.35 157.41L6.35 170.06L17.72 157.41L21.8 157.41L11.72 168.71L22.59 183L18.54 183L9.47 171.1ZM27.69 163.98L27.79 166.37C29.24 164.54 31.14 163.63 33.49 163.63C37.51 163.63 39.53 165.9 39.57 170.43L39.57 183L36.32 183L36.32 170.41C36.3 169.04 35.99 168.03 35.37 167.37C34.76 166.72 33.8 166.39 32.5 166.39C31.45 166.39 30.52 166.67 29.72 167.23C28.93 167.79 28.31 168.53 27.86 169.45L27.86 183L24.61 183L24.61 163.98L27.69 163.98ZM43.61 173.31C43.61 171.45 43.97 169.78 44.7 168.29C45.44 166.8 46.46 165.65 47.76 164.84C49.07 164.03 50.57 163.63 52.24 163.63C54.83 163.63 56.92 164.53 58.52 166.32C60.12 168.11 60.93 170.5 60.93 173.47L60.93 173.7C60.93 175.55 60.57 177.22 59.85 178.69C59.15 180.16 58.14 181.3 56.81 182.12C55.5 182.94 53.99 183.35 52.28 183.35C49.7 183.35 47.61 182.46 46 180.66C44.41 178.87 43.61 176.5 43.61 173.54L43.61 173.31ZM46.88 173.7C46.88 175.81 47.37 177.5 48.34 178.78C49.32 180.06 50.64 180.7 52.28 180.7C53.93 180.7 55.24 180.05 56.21 178.76C57.19 177.46 57.67 175.65 57.67 173.31C57.67 171.23 57.18 169.54 56.18 168.25C55.2 166.95 53.88 166.3 52.24 166.3C50.64 166.3 49.34 166.94 48.36 168.22C47.37 169.49 46.88 171.32 46.88 173.7ZM81.84 178.52L85.5 163.98L88.75 163.98L83.21 183L80.58 183L75.96 168.59L71.46 183L68.82 183L63.3 163.98L66.53 163.98L70.28 178.22L74.71 163.98L77.33 163.98L81.84 178.52ZM95.61 183L92.36 183L92.36 156L95.61 156L95.61 183ZM108.72 183.35C106.14 183.35 104.05 182.51 102.43 180.82C100.81 179.12 100 176.85 100 174.02L100 173.42C100 171.53 100.36 169.85 101.07 168.38C101.8 166.89 102.81 165.73 104.1 164.9C105.4 164.05 106.81 163.63 108.32 163.63C110.79 163.63 112.71 164.44 114.08 166.07C115.45 167.7 116.14 170.03 116.14 173.07L116.14 174.42L103.25 174.42C103.3 176.3 103.85 177.81 104.89 178.97C105.94 180.12 107.28 180.7 108.9 180.7C110.05 180.7 111.02 180.46 111.81 179.99C112.61 179.53 113.31 178.9 113.91 178.13L115.89 179.68C114.3 182.13 111.91 183.35 108.72 183.35ZM108.32 166.3C107 166.3 105.9 166.78 105.01 167.74C104.12 168.69 103.57 170.03 103.36 171.75L112.89 171.75L112.89 171.5C112.79 169.85 112.35 168.57 111.55 167.67C110.75 166.76 109.68 166.3 108.32 166.3ZM119.13 173.33C119.13 170.41 119.82 168.07 121.2 166.3C122.58 164.52 124.39 163.63 126.63 163.63C128.86 163.63 130.62 164.39 131.92 165.91L131.92 156L135.18 156L135.18 183L132.19 183L132.03 180.96C130.73 182.56 128.92 183.35 126.6 183.35C124.39 183.35 122.6 182.45 121.2 180.65C119.82 178.84 119.13 176.48 119.13 173.58L119.13 173.33ZM122.38 173.7C122.38 175.86 122.82 177.54 123.72 178.76C124.61 179.98 125.84 180.59 127.41 180.59C129.47 180.59 130.97 179.67 131.92 177.81L131.92 169.08C130.95 167.28 129.46 166.39 127.44 166.39C125.85 166.39 124.61 167 123.72 168.23C122.82 169.47 122.38 171.29 122.38 173.7ZM139.47 173.33C139.47 170.37 140.15 168.01 141.52 166.27C142.89 164.51 144.71 163.63 146.97 163.63C149.29 163.63 151.1 164.45 152.4 166.09L152.56 163.98L155.53 163.98L155.53 182.54C155.53 185 154.8 186.94 153.33 188.36C151.88 189.78 149.92 190.49 147.46 190.49C146.09 190.49 144.75 190.19 143.44 189.61C142.13 189.02 141.12 188.22 140.43 187.2L142.12 185.25C143.51 186.97 145.22 187.83 147.23 187.83C148.82 187.83 150.05 187.39 150.93 186.5C151.82 185.61 152.26 184.35 152.26 182.74L152.26 181.1C150.96 182.6 149.19 183.35 146.94 183.35C144.71 183.35 142.9 182.46 141.52 180.66C140.15 178.87 139.47 176.43 139.47 173.33ZM142.73 173.7C142.73 175.85 143.17 177.53 144.05 178.76C144.93 179.98 146.16 180.59 147.74 180.59C149.79 180.59 151.3 179.66 152.26 177.8L152.26 169.11C151.27 167.3 149.77 166.39 147.78 166.39C146.2 166.39 144.96 167 144.07 168.23C143.18 169.47 142.73 171.29 142.73 173.7ZM168.35 183.35C165.77 183.35 163.67 182.51 162.05 180.82C160.44 179.12 159.63 176.85 159.63 174.02L159.63 173.42C159.63 171.53 159.98 169.85 160.7 168.38C161.43 166.89 162.43 165.73 163.72 164.9C165.02 164.05 166.43 163.63 167.94 163.63C170.41 163.63 172.34 164.44 173.71 166.07C175.08 167.7 175.76 170.03 175.76 173.07L175.76 174.42L162.88 174.42C162.93 176.3 163.47 177.81 164.51 178.97C165.57 180.12 166.9 180.7 168.52 180.7C169.67 180.7 170.64 180.46 171.44 179.99C172.24 179.53 172.93 178.9 173.53 178.13L175.52 179.68C173.92 182.13 171.53 183.35 168.35 183.35ZM167.94 166.3C166.63 166.3 165.53 166.78 164.64 167.74C163.75 168.69 163.19 170.03 162.98 171.75L172.51 171.75L172.51 171.5C172.42 169.85 171.97 168.57 171.18 167.67C170.38 166.76 169.3 166.3 167.94 166.3Z" />
</svg>