<svg xmlns="http://www.w3.org/2000/svg" viewBox="0 0 182 191" width="182" height="191">
	<style>
		tspan { white-space:pre }
		.shp0 { fill: #3a314e } 
		.shp1 { fill: #000000 } 
	</style>
	<path id="Layer" fill-rule="evenodd" class="shp0" d="M182 17.39L182 144.93C181.99 146.35 181.32 147.66 180.24 148.36C179.15 149.08 177.8 149.08 176.71 148.36C176.5 148 141.22 126.2 91.83 140.38C91.55 140.42 91.26 140.42 90.98 140.38L90.14 140.38C40.89 126.32 5.61 148.16 5.26 148.36C4.73 148.7 4.13 148.88 3.53 148.88C1.58 148.88 0 147.09 0 144.89L0 17.35C0 15.15 1.58 13.36 3.53 13.36L15.42 13.36L15.42 8.77C15.35 6.93 16.4 5.29 17.96 4.77C26.26 2.31 34.81 1.08 43.39 1.1C57.47 1.1 76.84 4.54 90.95 21.07C105.16 4.69 124.39 1.1 138.5 1.1C147.09 1.08 155.63 2.31 163.94 4.77C165.49 5.29 166.54 6.93 166.48 8.77L166.48 13.4C166.49 13.4 178.46 13.4 178.47 13.4C180.42 13.4 182 15.19 182 17.39ZM71.72 128.68C62 125.07 51.82 123.33 41.59 123.53C34.21 123.59 26.84 124.26 19.54 125.52C19.36 125.56 19.17 125.57 18.97 125.57C17.03 125.54 15.47 123.74 15.49 121.53L15.49 21.39L7.06 21.39L7.06 138.54C27.52 129.07 49.78 125.67 71.72 128.68ZM87.45 128.32L87.35 28.85C74.72 12.72 56.52 9.29 43.32 9.29C36.28 9.31 29.27 10.19 22.4 11.92L22.4 116.98C28.77 116.06 35.18 115.6 41.59 115.58C65.79 115.58 80.12 122.89 87.45 128.32ZM94.51 128.28C101.95 122.85 116.31 115.54 140.37 115.54C146.75 115.58 153.13 116.06 159.46 116.98L159.46 11.92C152.59 10.19 145.57 9.31 138.54 9.29C125.34 9.29 107.14 12.88 94.51 28.85L94.51 128.28ZM175.05 21.39L166.62 21.39L166.62 121.49C166.62 121.71 166.61 121.92 166.58 122.13C166.29 124.31 164.49 125.81 162.56 125.48C155.22 124.23 147.8 123.57 140.37 123.53C130.1 123.31 119.87 125.06 110.1 128.68C132.09 125.65 154.41 129.04 174.91 138.54L175.05 21.39Z" />
	<path id="Layer" fill-rule="evenodd" class="shp1" d="M9.47 170.1L6.35 173.35L6.35 182L2.97 182L2.97 156.41L6.35 156.41L6.35 169.06L17.72 156.41L21.8 156.41L11.72 167.71L22.59 182L18.54 182L9.47 170.1ZM27.69 162.98L27.79 165.37C29.24 163.54 31.14 162.63 33.49 162.63C37.51 162.63 39.53 164.9 39.57 169.43L39.57 182L36.32 182L36.32 169.41C36.3 168.04 35.99 167.03 35.37 166.37C34.76 165.72 33.8 165.39 32.5 165.39C31.45 165.39 30.52 165.67 29.72 166.23C28.93 166.79 28.31 167.53 27.86 168.45L27.86 182L24.61 182L24.61 162.98L27.69 162.98ZM43.61 172.31C43.61 170.45 43.97 168.78 44.7 167.29C45.44 165.8 46.46 164.65 47.76 163.84C49.07 163.03 50.57 162.63 52.24 162.63C54.83 162.63 56.92 163.53 58.52 165.32C60.12 167.11 60.93 169.5 60.93 172.47L60.93 172.7C60.93 174.55 60.57 176.22 59.85 177.69C59.15 179.16 58.14 180.3 56.81 181.12C55.5 181.94 53.99 182.35 52.28 182.35C49.7 182.35 47.61 181.46 46 179.66C44.41 177.87 43.61 175.5 43.61 172.54L43.61 172.31ZM46.88 172.7C46.88 174.81 47.37 176.5 48.34 177.78C49.32 179.06 50.64 179.7 52.28 179.7C53.93 179.7 55.24 179.05 56.21 177.76C57.19 176.46 57.67 174.65 57.67 172.31C57.67 170.23 57.18 168.54 56.18 167.25C55.2 165.95 53.88 165.3 52.24 165.3C50.64 165.3 49.34 165.94 48.36 167.22C47.37 168.49 46.88 170.32 46.88 172.7ZM81.84 177.52L85.5 162.98L88.75 162.98L83.21 182L80.58 182L75.96 167.59L71.46 182L68.82 182L63.3 162.98L66.53 162.98L70.28 177.22L74.71 162.98L77.33 162.98L81.84 177.52ZM95.61 182L92.36 182L92.36 155L95.61 155L95.61 182ZM108.72 182.35C106.14 182.35 104.05 181.51 102.43 179.82C100.81 178.12 100 175.85 100 173.02L100 172.42C100 170.53 100.36 168.85 101.07 167.38C101.8 165.89 102.81 164.73 104.1 163.9C105.4 163.05 106.81 162.63 108.32 162.63C110.79 162.63 112.71 163.44 114.08 165.07C115.45 166.7 116.14 169.03 116.14 172.07L116.14 173.42L103.25 173.42C103.3 175.3 103.85 176.81 104.89 177.97C105.94 179.12 107.28 179.7 108.9 179.7C110.05 179.7 111.02 179.46 111.81 178.99C112.61 178.53 113.31 177.9 113.91 177.13L115.89 178.68C114.3 181.13 111.91 182.35 108.72 182.35ZM108.32 165.3C107 165.3 105.9 165.78 105.01 166.74C104.12 167.69 103.57 169.03 103.36 170.75L112.89 170.75L112.89 170.5C112.79 168.85 112.35 167.57 111.55 166.67C110.75 165.76 109.68 165.3 108.32 165.3ZM119.13 172.33C119.13 169.41 119.82 167.07 121.2 165.3C122.58 163.52 124.39 162.63 126.63 162.63C128.86 162.63 130.62 163.39 131.92 164.91L131.92 155L135.18 155L135.18 182L132.19 182L132.03 179.96C130.73 181.56 128.92 182.35 126.6 182.35C124.39 182.35 122.6 181.45 121.2 179.65C119.82 177.84 119.13 175.48 119.13 172.58L119.13 172.33ZM122.38 172.7C122.38 174.86 122.82 176.54 123.72 177.76C124.61 178.98 125.84 179.59 127.41 179.59C129.47 179.59 130.97 178.67 131.92 176.81L131.92 168.08C130.95 166.28 129.46 165.39 127.44 165.39C125.85 165.39 124.61 166 123.72 167.23C122.82 168.47 122.38 170.29 122.38 172.7ZM139.47 172.33C139.47 169.37 140.15 167.01 141.52 165.27C142.89 163.51 144.71 162.63 146.97 162.63C149.29 162.63 151.1 163.45 152.4 165.09L152.56 162.98L155.53 162.98L155.53 181.54C155.53 184 154.8 185.94 153.33 187.36C151.88 188.78 149.92 189.49 147.46 189.49C146.09 189.49 144.75 189.19 143.44 188.61C142.13 188.02 141.12 187.22 140.43 186.2L142.12 184.25C143.51 185.97 145.22 186.83 147.23 186.83C148.82 186.83 150.05 186.39 150.93 185.5C151.82 184.61 152.26 183.35 152.26 181.74L152.26 180.1C150.96 181.6 149.19 182.35 146.94 182.35C144.71 182.35 142.9 181.46 141.52 179.66C140.15 177.87 139.47 175.43 139.47 172.33ZM142.73 172.7C142.73 174.85 143.17 176.53 144.05 177.76C144.93 178.98 146.16 179.59 147.74 179.59C149.79 179.59 151.3 178.66 152.26 176.8L152.26 168.11C151.27 166.3 149.77 165.39 147.78 165.39C146.2 165.39 144.96 166 144.07 167.23C143.18 168.47 142.73 170.29 142.73 172.7ZM168.35 182.35C165.77 182.35 163.67 181.51 162.05 179.82C160.44 178.12 159.63 175.85 159.63 173.02L159.63 172.42C159.63 170.53 159.98 168.85 160.7 167.38C161.43 165.89 162.43 164.73 163.72 163.9C165.02 163.05 166.43 162.63 167.94 162.63C170.41 162.63 172.34 163.44 173.71 165.07C175.08 166.7 175.76 169.03 175.76 172.07L175.76 173.42L162.88 173.42C162.93 175.3 163.47 176.81 164.51 177.97C165.57 179.12 166.9 179.7 168.52 179.7C169.67 179.7 170.64 179.46 171.44 178.99C172.24 178.53 172.93 177.9 173.53 177.13L175.52 178.68C173.92 181.13 171.53 182.35 168.35 182.35ZM167.94 165.3C166.63 165.3 165.53 165.78 164.64 166.74C163.75 167.69 163.19 169.03 162.98 170.75L172.51 170.75L172.51 170.5C172.42 168.85 171.97 167.57 171.18 166.67C170.38 165.76 169.3 165.3 167.94 165.3Z" />
</svg>